<svg width="18" height="18" viewBox="0 0 18 18" fill="none" xmlns="http://www.w3.org/2000/svg">
<path d="M16 2.45454H2C0.895431 2.45454 0 3.34997 0 4.45454V13.5455C0 14.65 0.89543 15.5455 2 15.5455H16C17.1046 15.5455 18 14.65 18 13.5455V4.45454C18 3.34997 17.1046 2.45454 16 2.45454Z" fill="#3F3F4E"/>
<ellipse cx="6.54545" cy="9" rx="4.09091" ry="4.09091" fill="#EB001A"/>
<circle cx="11.4545" cy="9" r="4.09091" fill="#F79E1C"/>
<path d="M9 12.273C9.99361 11.5267 10.6364 10.3384 10.6364 9C10.6364 7.66157 9.99361 6.47335 9 5.72697C8.00638 6.47335 7.36363 7.66157 7.36363 9C7.36363 10.3384 8.00638 11.5267 9 12.273Z" fill="#FF5F00"/>
</svg>
